# xmcd
#
# Track frame offsets: 
#        150
#        17554
#        36006
#        45898
#        76686
#        93806
#        106394
#        118647
#        143010
#        163406
#        180279
#        199383
#        209636
#        226557
#        238570
#        262509
#        276619
#        289763
#        310206
#        331996
#
# Disc length: 4640 seconds
#
# Revision: 0
# Processed by: cddbd v1.4PL0 Copyright (c) Steve Scherf et al.
# Submitted via: ExactAudioCopy v0.90b4
#
DISCID=05121e14
DTITLE=Paul Ubana Jones - Uniquely Ubana
DYEAR=2002
DGENRE=Acoustic
TTITLE0=One
TTITLE1=Lust for Life
TTITLE2=Kalimba
TTITLE3=Birthday
TTITLE4=A Change of Season
TTITLE5=Sanura
TTITLE6=Looking For Your Love
TTITLE7=Angel
TTITLE8=Daddy Don't Live Here Anymore
TTITLE9=Give It All
TTITLE10=House Of The Rising Sun
TTITLE11=Sade
TTITLE12=Hoochie Coochie Man
TTITLE13=Okoi Ubanga
TTITLE14=Summertime
TTITLE15=The River In Me
TTITLE16=Moonflower
TTITLE17=Special Request
TTITLE18=Africa - The Sunburnt Stone
TTITLE19=Aisha
EXTD=
EXTT0=
EXTT1=
EXTT2=
EXTT3=
EXTT4=
EXTT5=
EXTT6=
EXTT7=
EXTT8=
EXTT9=
EXTT10=
EXTT11=
EXTT12=
EXTT13=
EXTT14=
EXTT15=
EXTT16=
EXTT17=
EXTT18=
EXTT19=
PLAYORDER=
